<?xml version="1.0" encoding="UTF-8" standalone="no"?>
<!-- Created with Inkscape (http://www.inkscape.org/) -->

<svg
   xmlns:dc="http://purl.org/dc/elements/1.1/"
   xmlns:cc="http://creativecommons.org/ns#"
   xmlns:rdf="http://www.w3.org/1999/02/22-rdf-syntax-ns#"
   xmlns:svg="http://www.w3.org/2000/svg"
   xmlns="http://www.w3.org/2000/svg"
   xmlns:sodipodi="http://sodipodi.sourceforge.net/DTD/sodipodi-0.dtd"
   xmlns:inkscape="http://www.inkscape.org/namespaces/inkscape"
   id="svg3406"
   version="1.1"
   inkscape:version="0.91 r13725"
   width="276"
   height="279"
   viewBox="0 0 276 279"
   sodipodi:docname="gim-logo.svg">
  <metadata
     id="metadata3412">
    <rdf:RDF>
      <cc:Work
         rdf:about="">
        <dc:format>image/svg+xml</dc:format>
        <dc:type
           rdf:resource="http://purl.org/dc/dcmitype/StillImage" />
        <dc:title></dc:title>
      </cc:Work>
    </rdf:RDF>
  </metadata>
  <defs
     id="defs3410" />
  <sodipodi:namedview
     pagecolor="#ffffff"
     bordercolor="#666666"
     borderopacity="1"
     objecttolerance="10"
     gridtolerance="10"
     guidetolerance="10"
     inkscape:pageopacity="0"
     inkscape:pageshadow="2"
     inkscape:window-width="1311"
     inkscape:window-height="744"
     id="namedview3408"
     showgrid="false"
     inkscape:zoom="1.0913979"
     inkscape:cx="346.06391"
     inkscape:cy="149.91633"
     inkscape:window-x="55"
     inkscape:window-y="24"
     inkscape:window-maximized="1"
     inkscape:current-layer="svg3406" />
  <path
     style="fill:#000000"
     d="m 120.99504,269.33251 c -1.28109,-4.95 -2.72521,-10.4625 -3.20915,-12.25 -0.48567,-1.79387 -1.53858,-3.25 -2.35003,-3.25 -0.80858,0 -6.89532,-1.81357 -13.52609,-4.03016 -13.788061,-4.60919 -10.984011,-5.24126 -23.790171,5.36261 -4.44754,3.68268 -7.51849,5.55849 -8.33169,5.08921 -0.93424,-0.53914 -17.26293,-12.28506 -23.59079,-16.96985 -0.16658,-0.12333 1.315,-4.36457 3.29239,-9.42497 5.38295,-13.77563 5.41124,-14.28742 1.05633,-19.10779 -2.03557,-2.25313 -5.73368,-7.23874 -8.21802,-11.07914 l -4.51698,-6.98254 -12.40542,0.70674 c -6.82298,0.38871 -12.41212,0.5333 -12.4203,0.32132 -0.008,-0.21199 -2.03319,-6.45285 -4.5000001,-13.86858 -2.46682,-7.41573 -4.48512,-13.76221 -4.48512,-14.10328 0,-0.72959 12.1062701,-8.88293 16.7723801,-11.29586 l 3.22762,-1.66907 0,-15.23252 0,-15.23251 -10,-6.38431 c -5.5000001,-3.51137 -10.0000001,-6.65715 -10.0000001,-6.99062 0,-0.33347 2.08315,-6.85687 4.62923,-14.496436 l 4.6292301,-13.890128 12.16532,0.675915 12.16531,0.675915 5.63658,-8.297947 c 3.10011,-4.56387 6.79257,-9.383949 8.20545,-10.711285 1.41288,-1.327337 2.56888,-3.322176 2.56888,-4.432976 0,-1.1108 -1.83061,-6.701745 -4.06803,-12.424323 -2.23742,-5.722577 -3.92492,-10.527938 -3.75,-10.678581 2.27855,-1.962347 24.21831,-17.522964 24.68377,-17.506787 0.34884,0.01212 4.67129,3.387124 9.60544,7.5 4.93415,4.112876 9.30499,7.477956 9.71298,7.477956 0.40799,0 3.12096,-0.942761 6.02882,-2.095024 7.215131,-2.859052 16.927741,-5.876413 18.966061,-5.892075 1.83577,-0.01411 3.66257,-5.379385 7.23973,-21.2629013 l 0.61933,-2.75 15.98095,0 c 8.78952,0 16.00019,0.3375 16.0237,0.75 0.0235,0.4125 1.29369,5.7000003 2.82262,11.7500003 2.243,8.875576 3.15211,11.062567 4.70726,11.323964 1.06005,0.17818 7.25323,2.113459 13.7626,4.300619 l 11.83524,3.976655 4.16476,-3.423324 c 2.29063,-1.882828 6.41325,-5.286165 9.16139,-7.562971 2.74814,-2.276807 5.54167,-3.930492 6.20784,-3.674857 0.87077,0.334146 20.29298,14.112266 24.09944,17.096149 0.16714,0.131024 -0.88442,3.101471 -2.33681,6.600995 -1.45239,3.499523 -3.48377,8.74376 -4.51418,11.653859 l -1.87346,5.29109 3.34657,3.70891 c 1.84062,2.039901 5.67507,7.083911 8.52101,11.208911 l 5.17443,7.5 12.51455,0 12.51455,0 4.45971,13.881674 c 2.45284,7.634913 4.2455,14.095883 3.98369,14.357703 -0.26182,0.26181 -4.81066,3.27467 -10.10855,6.69524 l -9.63252,6.21921 -0.0586,14.77719 -0.0586,14.77718 9.38217,5.99309 c 5.16019,3.2962 9.73111,6.3208 10.1576,6.72133 0.42649,0.40053 -1.29825,7.16822 -3.83275,15.03931 l -4.60821,14.31107 -12.91725,-0.70219 C 242.42853,196.88751 239,197.00696 239,197.85334 c 0,1.42472 -4.92234,8.56332 -11.29246,16.37684 -2.6445,3.24372 -4.60208,6.39372 -4.35017,7 3.82677,9.21012 8.67723,21.88593 8.44427,22.06758 -1.56939,1.2237 -22.61067,16.30409 -23.58955,16.90673 -0.84061,0.51753 -3.73426,-1.23274 -8.33168,-5.03953 -12.69228,-10.50956 -10.18776,-9.8307 -22.02584,-5.97023 -5.69501,1.85718 -11.90797,3.78358 -13.80657,4.28089 -3.4464,0.90275 -3.45672,0.92318 -6.35468,12.58379 l -2.90268,11.67957 -15.73317,0.29677 -15.73317,0.29676 -2.32926,-9 z m 16.00496,-32 c 1.14744,-3.01799 2.55805,-3.19431 4,-0.5 1.47027,2.74722 3.85612,2.50863 5,-0.5 0.52277,-1.375 1.3394,-2.5 1.81473,-2.5 0.47533,0 1.37682,1.125 2.00332,2.5 1.33238,2.92427 4.18195,3.3484 4.18195,0.62244 0,-1.03265 0.61809,-2.39052 1.37353,-3.01748 1.076,-0.893 1.72629,-0.60156 3.00199,1.34541 1.93584,2.95446 4.62448,2.40192 4.62448,-0.95037 0,-2.97946 2.31538,-3.82589 3.83024,-1.40022 1.86477,2.98596 4.16976,2.37802 4.16976,-1.09978 0,-3.28882 1.91837,-4.00821 4,-1.5 2.06491,2.48807 4,1.79096 4,-1.44098 0,-3.66715 1.58204,-4.74724 3.89175,-2.65698 2.81736,2.54967 4.10825,1.9184 4.10825,-2.00903 0,-3.05129 0.26961,-3.49265 1.75,-2.86482 0.9625,0.4082 2.65,0.79384 3.75,0.85699 1.68903,0.097 1.9483,-0.41206 1.66746,-3.27384 -0.29013,-2.95656 -0.0989,-3.28999 1.5,-2.61482 1.0079,0.42561 2.73254,0.82551 3.83254,0.88866 1.68898,0.097 1.9483,-0.41208 1.66752,-3.27338 -0.28279,-2.88185 -0.0586,-3.31104 1.5,-2.87191 4.88008,1.37495 4.84047,1.39632 4.61241,-2.48964 -0.21408,-3.64778 -0.13251,-3.74295 3,-3.5 3.29008,0.25518 3.79172,-0.75271 2.61314,-5.25025 -0.29924,-1.14194 0.36101,-1.42796 2.76591,-1.19822 3.91522,0.37403 4.63902,-0.6735 2.84914,-4.12348 -1.46951,-2.8325 -1.41531,-2.89987 2.47015,-3.06987 2.98817,-0.13074 3.84359,-2.92942 1.58556,-5.18746 -2.16437,-2.16437 -1.24877,-3.17511 2.39214,-2.64074 2.5224,0.37021 3.04403,0.10558 3.04403,-1.54429 0,-1.09508 -0.675,-2.55125 -1.5,-3.23594 -2.30145,-1.91004 -1.79534,-3 1.39301,-3 3.76705,0 5.07823,-2.94109 2.17199,-4.87197 -2.81293,-1.86889 -2.59252,-2.93449 0.685,-3.31161 3.53647,-0.40691 4.45424,-4.29943 1.25325,-5.31539 -2.67792,-0.84994 -2.0959,-2.77095 1.06564,-3.51729 3.0993,-0.73165 3.65844,-3.52412 0.99144,-4.95145 -2.76527,-1.47993 -2.59781,-2.85929 0.43967,-3.62165 2.29803,-0.57677 3.76802,-4.41064 1.69113,-4.41064 -0.44488,0 -1.68238,-0.64138 -2.75,-1.4253 -1.87482,-1.3766 -1.84718,-1.46116 0.80887,-2.47524 3.54936,-1.35516 3.69861,-4.64456 0.25,-5.5101 -3.00142,-0.75331 -3.27721,-2.57335 -0.5,-3.29961 2.85212,-0.74585 2.71719,-5.04512 -0.17167,-5.4702 -2.92938,-0.43104 -3.44105,-2.4903 -0.82508,-3.32058 3.20099,-1.01596 2.28322,-4.90848 -1.25325,-5.31539 -3.31409,-0.38133 -3.49479,-1.44511 -0.57482,-3.3839 2.79288,-1.85441 1.8204,-4.79968 -1.58478,-4.79968 -3.27311,0 -4.15538,-1.62727 -1.61841,-2.98501 1.11541,-0.59695 2.02801,-1.96952 2.02801,-3.05017 0,-1.57884 -0.68756,-1.96482 -3.5,-1.96482 -3.74864,0 -4.41336,-0.99709 -2,-2.999997 0.825,-0.684689 1.5,-2.089789 1.5,-3.122445 0,-1.419506 -0.73188,-1.877555 -3,-1.877555 -2,0 -3,-0.5 -3,-1.5 0,-0.825 0.4813,-1.5 1.06955,-1.5 0.58825,0 0.92548,-1.0125 0.74939,-2.25 -0.26618,-1.870647 -0.86801,-2.207208 -3.56955,-1.996194 -3.37541,0.263649 -4.31655,-1.286645 -2.11661,-3.486589 0.62303,-0.62303 0.8484,-1.873866 0.50083,-2.779636 -0.47345,-1.233794 -1.36074,-1.486787 -3.53758,-1.008672 -2.87632,0.631744 -5.07238,-0.757458 -3.11234,-1.968828 1.44398,-0.892427 1.2625,-4.486758 -0.23369,-4.628502 -1.74565,-0.165377 -2.01739,-0.12025 -4.05948,0.674142 -1.58345,0.615976 -1.77082,0.219259 -1.5,-3.175909 0.3275,-4.105672 -0.0339,-4.308208 -5.01118,-2.808723 -2.21772,0.668119 -2.28914,0.531092 -1.60996,-3.089233 0.77654,-4.139286 1.29837,-3.970629 -5.68085,-1.836073 -1.9247,0.588658 -2.05034,0.367439 -1.42037,-2.500826 0.83596,-3.806113 -1.52339,-5.309933 -4.33656,-2.764056 C 183.948,60.189546 183,59.418344 183,55.665846 183,52.489817 181.52595,52.046562 178.89175,54.430474 176.70714,56.407524 175,55.487242 175,52.332513 175,48.905586 172.98421,48.133785 170.86598,50.749687 168.73768,53.378031 167,52.714513 167,49.273496 c 0,-1.786887 -0.54434,-2.440983 -2.03138,-2.440983 -1.11727,0 -2.29041,0.675 -2.60699,1.5 -0.9721,2.533231 -3.10559,1.669608 -4.3232,-1.75 l -1.15722,-3.25 -2.22817,2.75 C 152.07313,49.266628 150,49.65534 150,46.954958 c 0,-1.032656 -0.7093,-2.46622 -1.57622,-3.185698 -1.30629,-1.084129 -1.73178,-1.062285 -2.48468,0.127555 -0.49966,0.789634 -0.91537,1.998198 -0.92379,2.685698 -0.0275,2.248825 -3.04183,1.310454 -4.01531,-1.25 -1.22223,-3.214712 -3.6038,-3.214712 -4.41064,0 -0.81192,3.234927 -2.9507,3.197116 -4.4432,-0.07855 -1.30852,-2.871894 -3.45984,-2.784933 -3.99322,0.161416 -0.63455,3.505136 -2.14847,4.065963 -4.07897,1.511043 C 121.96529,44.135701 119,44.64689 119,47.801128 c 0,2.36316 -2.77967,2.769131 -3.63837,0.531385 C 114.37761,45.768212 111,46.496903 111,49.273496 c 0,3.47986 -2.00188,4.274917 -4.13402,1.641843 C 104.75105,48.303499 103,48.945388 103,52.332513 c 0,3.154729 -1.70714,4.075011 -3.891751,2.097961 -2.65902,-2.406379 -4.10825,-1.932614 -4.10825,1.343022 0,3.722926 -1.58993,4.740095 -4,2.559017 -2.52806,-2.287867 -4.34487,-0.974379 -3.62574,2.62128 0.47406,2.370306 0.23736,2.87872 -1.34024,2.87872 -1.05379,0 -2.1941,-0.45 -2.53402,-1 -0.33992,-0.55 -1.32535,-1 -2.18986,-1 -1.24684,0 -1.45077,0.745948 -0.98634,3.607906 0.6229,3.838511 0.66186,3.821837 -5.3238,2.278782 -1.16846,-0.301219 -1.44848,0.466965 -1.2669,3.475523 0.19572,3.242995 -0.0448,3.783602 -1.5,3.371906 -4.76734,-1.34871 -4.74083,-1.363866 -4.50594,2.576794 0.22237,3.730686 0.15921,3.804365 -3,3.5 -2.6935,-0.259497 -3.20817,0.01982 -3.11234,1.689089 0.0632,1.1 0.47618,2.858855 0.91784,3.908567 0.72006,1.711398 0.47182,1.842329 -2.40288,1.267389 -3.70172,-0.740345 -5.23259,1.328508 -3.2876,4.442941 1.65381,2.648164 1.50487,2.881103 -1.84218,2.881103 -2.30293,0 -3,0.451002 -3,1.940983 0,1.067541 0.45,2.219098 1,2.559017 2.19301,1.355357 0.9675,3.499997 -2,3.499997 -2.26812,0 -3,0.45805 -3,1.87756 0,1.03265 0.675,2.43775 1.5,3.12244 2.22243,1.84445 1.82516,3 -1.03138,3 -3.54467,0 -4.3781,2.84513 -1.51303,5.16513 l 2.28912,1.8536 -3.12236,1.08846 c -3.63408,1.26685 -4.18715,4.25258 -1.09434,5.9078 2.31768,1.24039 1.74489,2.98501 -0.98004,2.98501 -2.6163,0 -3.55847,3.15354 -1.41126,4.72362 0.96005,0.70201 2.10954,1.27638 2.55442,1.27638 1.90811,0 0.59108,2.01656 -1.69113,2.58936 -3.31856,0.8329 -3.31856,4.14893 0,5.41064 3.21326,1.22168 3.18694,2.61077 -0.0649,3.42694 -3.32413,0.8343 -3.08614,4.90958 0.31492,5.39261 2.78834,0.39601 2.95878,2.76184 0.25,3.4702 -2.54039,0.66433 -2.75409,4.70365 -0.25,4.72556 0.9625,0.008 2.40097,0.42716 3.19659,0.93052 1.19627,0.75683 1.03762,1.24637 -0.91676,2.82893 -2.9335,2.37541 -2.1488,5.22524 1.43879,5.22524 3.08067,0 3.16319,0.69857 0.42661,3.61152 -2.44437,2.60192 -1.79106,4.38848 1.60477,4.38848 3.00248,0 3.92786,1.40002 1.98899,3.00914 -0.81894,0.67966 -1.48899,2.08065 -1.48899,3.1133 0,1.41951 0.73188,1.87756 3,1.87756 3.1081,0 3.93898,1.66102 1.86722,3.73278 -1.8957,1.8957 -0.18586,4.56401 2.49364,3.8915 3.22033,-0.80825 3.93889,0.2693 2.07575,3.11282 -2.04211,3.11664 -0.31882,5.80541 2.68906,4.19564 2.62706,-1.40595 4.14922,-0.3149 2.87704,2.06221 -0.55149,1.03046 -1.00271,2.62823 -1.00271,3.5506 0,1.38002 0.62975,1.55889 3.55578,1.00996 l 3.55578,-0.66706 -0.64559,3.44125 c -0.69294,3.69369 0.8464,5.75793 2.82116,3.78317 2.22921,-2.22921 3.9978,-1.28749 3.38032,1.79991 -0.77476,3.87377 1.18718,5.57777 4.08506,3.54802 2.49412,-1.74695 3.57314,-0.60648 2.7037,2.85768 -0.74879,2.98339 1.54341,4.1548 4.19659,2.14464 2.79621,-2.11852 3.3472,-1.78322 3.3472,2.03688 0,3.82055 1.31539,4.42954 4.10825,1.90204 2.18461,-1.97705 3.89175,-1.05677 3.89175,2.09796 0,3.15473 1.707141,4.07501 3.891751,2.09796 2.67224,-2.41833 4.10825,-1.92826 4.10825,1.40204 0,3.5104 1.84626,3.93235 4.47866,1.02358 2.00542,-2.21596 3.52134,-1.82292 3.52134,0.91299 0,1.0002 0.60004,2.31653 1.33341,2.92517 1.0204,0.84686 1.86758,0.4923 3.60889,-1.51039 1.81073,-2.08252 2.45434,-2.33459 3.15127,-1.23419 0.48169,0.76056 0.8827,2.17034 0.89112,3.13284 0.0221,2.52191 1.91091,2.1547 4.76666,-0.92671 l 2.48069,-2.67671 1.33571,3.17671 c 1.60674,3.82131 3.14725,4.05652 4.43225,0.67671 z m -4.18045,-2.75 c -0.38578,-2.71636 -4.51049,-3.71897 -5.43101,-1.32014 C 126.4536,235.69878 125,235.11379 125,232.30113 c 0,-2.98895 -2.49148,-4.26729 -5.1189,-2.62644 -2.70138,1.68704 -3.17005,1.44968 -2.63756,-1.33583 0.67141,-3.51226 -1.538,-5.14884 -4.88948,-3.62181 -2.5015,1.13976 -2.56387,1.08756 -1.89327,-1.58433 0.3814,-1.51961 0.77124,-3.22131 0.86633,-3.78157 0.0951,-0.56025 -1.50747,-1.15788 -3.56124,-1.32806 -3.70984,-0.30741 -3.72376,-0.32524 -2.14005,-2.74228 2.03851,-3.11115 1.14005,-5.4483 -2.09445,-5.4483 -3.05051,0 -3.26233,-1.37461 -0.50898,-3.30314 2.43388,-1.70475 1.71696,-4.44565 -1.27862,-4.88839 -3.054271,-0.45141 -3.234911,-2.46839 -0.28733,-3.20818 3.10676,-0.77975 3.42496,-4.05821 0.54355,-5.60029 -2.721781,-1.45665 -2.519591,-3 0.39301,-3 3.39462,0 4.12345,-2.82135 1.46095,-5.65546 l -2.20259,-2.34454 3.2057,0 c 3.45593,0 5.23082,-2.31211 3.27571,-4.26722 -2.2001,-2.2001 -1.25878,-3.75023 2.11722,-3.48659 3.16213,0.24695 3.24417,0.15342 3.03419,-3.45917 -0.20813,-3.58085 -0.13033,-3.67404 2.18623,-2.61854 3.54086,1.61332 5.52958,0.42237 5.52958,-3.31141 l 0,-3.2057 2.26546,2.12829 c 2.24575,2.10977 5.06258,1.71918 5.35954,-0.74319 0.0687,-0.57006 0.19622,-1.82397 0.28327,-2.78647 0.13755,-1.52094 0.40396,-1.45549 2.03529,0.5 2.579,3.09146 5.43466,2.87841 6.7018,-0.5 l 1.03145,-2.75 1.32211,2.75 c 1.5564,3.23732 4.482,3.58843 6.01607,0.72199 1.3524,-2.52698 2.98501,-1.65898 2.98501,1.58703 0,1.92131 0.51967,2.44098 2.44098,2.44098 1.34254,0 2.7191,-0.45 3.05902,-1 1.23707,-2.00162 2.72426,-0.95349 2.24018,1.57882 -0.59969,3.1371 1.3462,4.15848 4.86664,2.55446 2.41955,-1.10242 2.47223,-1.03933 2.18623,2.61854 l -0.29305,3.74818 3.90613,-0.31276 3.90614,-0.31276 -1.72304,2.62968 c -2.05851,3.14169 -0.75923,5.49584 3.03321,5.49584 2.79703,0 2.9645,0.69396 0.75628,3.13401 -1.98516,2.19358 -1.1444,4.86599 1.53088,4.86599 3.08634,0 3.46957,1.87012 0.64679,3.15626 -3.25415,1.48269 -3.26675,3.56296 -0.0305,5.03749 2.94237,1.34064 2.76395,3.16698 -0.35423,3.6258 -2.7657,0.40696 -2.86905,3.57858 -0.17803,5.46344 2.29483,1.60736 1.66044,2.71701 -1.55332,2.71701 -2.84186,0 -3.94281,2.78728 -1.96443,4.97336 2.20116,2.43225 1.90515,3.02664 -1.50727,3.02664 -3.28881,0 -5.00597,2.36265 -3.1014,4.26722 2.02865,2.02865 1.20368,2.82489 -2.61722,2.52606 -3.64972,-0.28544 -3.74606,-0.20637 -3.60255,2.95672 0.14436,3.18203 -1.73923,4.52855 -3.14745,2.25 -0.33992,-0.55 -1.49148,-1 -2.55902,-1 -1.48997,0 -1.94097,0.69707 -1.94097,3 0,3.28683 -1.07216,3.82291 -3,1.5 -1.86154,-2.24302 -4.80777,-1.86103 -5.18045,0.67167 -0.42673,2.9001 -2.48706,3.45128 -3.30208,0.88338 -0.83512,-2.63124 -4.18814,-2.66803 -5.01747,-0.055 -0.85802,2.70339 -3.28441,2.53857 -3.68045,-0.25 z m 15.93365,-18.6249 c 4.8064,-2.45308 6.66825,-4.56295 9.32344,-10.56546 7.31706,-16.54143 -11.0151,-34.27806 -27.57664,-26.6808 -10.92429,5.01129 -15.75426,17.82195 -10.55891,28.00568 2.37883,4.6629 8.14972,9.87816 11.82725,10.6885 1.50241,0.33106 3.18166,0.77555 3.73166,0.98776 2.06911,0.79835 9.64445,-0.59385 13.2532,-2.43568 z m -20.41865,-8.69565 c -0.38581,-1.00542 0.78715,-2.99384 3.25982,-5.52609 3.20848,-3.28579 3.67024,-4.24744 2.72711,-5.67945 -0.62445,-0.94815 -1.64547,-1.60533 -2.26893,-1.46041 C 130.18314,195.03057 127,192.87523 127,191.17488 c 0,-1.22906 0.30856,-1.33117 1.36732,-0.45248 2.05819,1.70814 4.38122,-1.28303 2.63268,-3.38989 -0.68469,-0.825 -0.85229,-1.49311 -0.37244,-1.48469 1.92418,0.0338 3.77214,1.98179 4.79463,5.05423 1.63274,4.90615 3.93771,5.88043 7.03287,2.97268 1.39972,-1.31497 2.54494,-2.95708 2.54494,-3.64915 0,-1.30003 3.7583,-2.96811 4.65869,-2.06771 0.51714,0.51713 -0.80689,1.83735 -6.15869,6.14101 -2.48691,1.99984 -2.8115,2.72211 -1.89787,4.22304 0.60617,0.99582 2.18117,1.95492 3.5,2.13133 2.35114,0.31449 4.89787,2.65061 4.89787,4.49283 0,0.51223 -0.675,0.37112 -1.5,-0.31357 -2.10686,-1.74854 -5.09803,0.57449 -3.38989,2.63268 0.88149,1.06212 0.76785,1.36732 -0.5091,1.36732 -1.52248,0 -2.48425,-1.52361 -4.0549,-6.42362 -0.54999,-1.71585 -1.07591,-1.47283 -4.8692,2.25 -4.547,4.46254 -6.37951,5.11222 -7.34236,2.60307 z M 96.762049,182.76078 c -2.8461,-4.55374 -15.76205,-27.05093 -15.76205,-27.45457 0,-0.22128 3.30608,-0.38507 7.34685,-0.36397 4.04077,0.0211 8.9591,-0.2641 10.92963,-0.63378 3.429661,-0.6434 3.672891,-0.49552 5.690971,3.46026 1.15951,2.27281 1.79664,4.63648 1.41586,5.25259 -0.40749,0.65934 -0.24262,0.84228 0.40072,0.44468 0.60118,-0.37155 1.52787,0.10144 2.05933,1.0511 0.75312,1.34575 0.0257,2.94969 -3.29774,7.27103 -2.34521,3.04941 -4.93944,7.31211 -5.764961,9.47266 l -1.50093,3.92828 -1.51768,-2.42828 z m 80.255811,-3.10293 c -1.28626,-2.84606 -3.88542,-6.88674 -5.77591,-8.97929 l -3.43725,-3.80462 3.69827,-6.61313 c 3.69383,-6.60518 3.70261,-6.61231 7.31094,-5.93539 4.63626,0.86977 15.91634,0.79184 17.39198,-0.12015 0.75189,-0.4647 0.91304,-0.12507 0.47826,1.00795 -0.74817,1.94969 -16.70495,29.61929 -17.08115,29.61929 -0.13557,0 -1.29888,-2.3286 -2.58514,-5.17466 z m -43.29878,-20.13616 c 0.24486,-1.28086 -0.19965,-2.84313 -0.9973,-3.50512 -1.14586,-0.95098 -2.00933,-0.74572 -4.23818,1.0075 l -2.79915,2.20181 0.7349,-2.92804 c 0.40419,-1.61042 0.81268,-3.38643 0.90777,-3.94669 0.0972,-0.57247 -1.46965,-0.92224 -3.57712,-0.79854 -4.31791,0.25343 -4.47671,0.007 -1.75,-2.7201 2.76645,-2.76645 2.50717,-3.94857 -1.02081,-4.65416 -4.13483,-0.82697 -4.54701,-1.98228 -0.96296,-2.69909 3.71664,-0.74332 3.7899,-2.41159 0.23377,-5.32322 l -2.75,-2.2516 3.28138,-0.036 c 3.5258,-0.0386 5.31658,-2.338 3.3514,-4.30318 C 123.50975,128.94226 123,127.8742 123,127.19181 c 0,-0.95055 0.62634,-0.91575 2.6783,0.14882 3.38705,1.75723 4.3217,1.16434 4.3217,-2.74145 l 0,-3.1153 2.42597,2.27908 c 2.62534,2.46638 4.57403,2.06998 4.57403,-0.93045 0,-3.17112 1.74495,-3.17039 2.85057,0.001 1.20934,3.46911 3.13088,3.85941 4.91736,0.99881 1.80729,-2.89393 2.75278,-2.46286 2.74174,1.25 -0.0101,3.40568 0.52226,3.61758 5.40976,2.15308 2.37329,-0.71113 2.38759,-0.6795 0.75,1.65849 -2.57186,3.67203 -2.10236,4.93862 1.83057,4.93862 1.925,0 3.5,0.45 3.5,1 0,0.55 -0.36399,1 -0.80887,1 -0.44488,0 -1.66539,0.6263 -2.71225,1.39179 -1.61719,1.18252 -1.7027,1.6336 -0.56869,3 0.73409,0.88451 2.1796,1.60821 3.21225,1.60821 1.03266,0 1.87756,0.45 1.87756,1 0,0.55 -0.81399,1 -1.80887,1 -0.99488,0 -2.63835,0.60653 -3.65216,1.34784 -1.77619,1.29879 -1.76495,1.42618 0.30887,3.5 2.86213,2.86213 2.73257,3.2051 -1.09784,2.90597 -3.21343,-0.25095 -3.24636,-0.20888 -2.92634,3.73971 l 0.32367,3.99351 -2.54435,-2.39029 c -2.17336,-2.04176 -2.77906,-2.19549 -4.15408,-1.05433 -0.94745,0.78631 -1.42798,2.28667 -1.16798,3.64677 0.58547,3.0627 -0.66882,2.94965 -2.09897,-0.18918 -0.62649,-1.375 -1.83337,-2.5 -2.68195,-2.5 -0.84858,0 -2.05546,1.125 -2.68195,2.5 -1.43015,3.13883 -2.68444,3.25188 -2.09897,0.18918 z m 10.20834,-14.32404 C 145.06734,143.74848 146,141.78417 146,140.83251 c 0,-3.06694 -3.91159,-7 -6.9618,-7 -6.19474,0 -9.71407,6.59976 -6.02214,11.29328 2.9231,3.71612 8.01839,3.74968 10.91136,0.0719 z m -60.107871,4.38486 c -0.38578,-2.71636 -4.51049,-3.71897 -5.43101,-1.32014 -0.93494,2.43641 -2.38854,1.85142 -2.38854,-0.96124 0,-2.98895 -2.49148,-4.26729 -5.1189,-2.62644 -2.60165,1.62476 -2.71694,1.54613 -3.06774,-2.09218 -0.29157,-3.02405 -0.54726,-3.23128 -3.67776,-2.98068 -2.86183,0.22909 -3.26156,0.005 -2.67591,-1.5 0.37867,-0.97313 0.70844,-1.99432 0.73282,-2.26932 0.20915,-2.35901 -0.60437,-3 -3.80752,-3 l -3.61501,0 1.691,-2.58079 c 2.12567,-3.24418 1.35121,-5.41921 -1.92959,-5.41921 -3.03318,0 -3.30193,-1.51725 -0.53139,-3 2.91211,-1.55851 2.44816,-3.94781 -1,-5.14984 -3.65525,-1.27423 -3.83165,-2.42461 -0.5,-3.2608 3.03206,-0.761 3.29796,-3.60993 0.5,-5.35729 -2.51911,-1.57321 -2.58196,-3.23207 -0.12244,-3.23207 1.03265,0 2.4487,-0.68819 3.14677,-1.52932 1.05193,-1.26749 0.88332,-1.94007 -0.98483,-3.928633 l -2.25405,-2.399325 3.35728,-0.32136 c 3.49317,-0.334368 4.12796,-1.960187 2.37805,-6.09068 -0.64189,-1.515108 -0.26619,-1.730625 2.61482,-1.5 3.22852,0.258443 3.35415,0.138056 3.1106,-2.980679 -0.26452,-3.387171 0.61931,-3.927531 3.71454,-2.271013 2.31434,1.238596 4.5066,-1.083862 3.75091,-3.973661 -0.6348,-2.427445 0.97459,-2.599248 3.44085,-0.367314 1.4692,1.329608 2.09386,1.402414 3.31773,0.386693 0.82926,-0.688225 1.3174,-1.559316 1.08474,-1.935758 -0.23265,-0.376441 -0.0154,-1.337953 0.48282,-2.136693 0.75341,-1.207893 1.16171,-1.089085 2.42652,0.706087 1.97742,2.806578 5.14792,2.017329 6.03701,-1.502824 l 0.67071,-2.655517 1.38379,2.631426 c 1.98307,3.770999 4.00594,4.186366 5.94861,1.221465 0.91046,-1.38953 1.95692,-2.224875 2.32547,-1.856322 0.6626,0.662601 0.80133,1.179801 1.0451,3.896442 0.208451,2.322969 2.829781,2.597623 5.197021,0.544526 2.94199,-2.551575 3.13503,-2.474429 2.75979,1.102919 -0.41334,3.94057 1.68811,5.320212 4.89905,3.21632 l 2.39466,-1.569041 -0.31276,3.906132 c -0.30664,3.829647 -0.24912,3.903246 2.93724,3.758685 3.27847,-0.14874 4.23341,1.264036 2.21722,3.280231 -1.8023,1.802299 0.0417,4.367217 3.13977,4.367217 3.05363,0 3.93219,1.664 1.39301,2.638374 -0.825,0.316582 -1.5,1.441583 -1.5,2.499993 0,1.05842 0.675,2.13528 1.5,2.39301 5.21927,1.63056 5.13719,1.51141 2.24845,3.26419 -3.41641,2.07296 -3.50089,3.90447 -0.24845,5.38638 1.375,0.6265 2.5,1.50827 2.5,1.95951 0,0.45124 -1.125,1.10279 -2.5,1.4479 -3.07683,0.77223 -3.19792,3.03884 -0.32569,6.09619 l 2.17432,2.31445 -3.06733,0 c -3.56793,0 -4.75054,2.00495 -2.74442,4.6528 2.07313,2.7363 1.7869,3.3472 -1.56826,3.3472 -3.49351,0 -4.63031,1.8951 -2.9831,4.97294 1.07955,2.01715 0.93885,2.11338 -2.673,1.82814 -3.73789,-0.29519 -3.80948,-0.23608 -3.6574,3.0195 0.12773,2.73397 -0.13727,3.19707 -1.5,2.62141 -0.91031,-0.38455 -2.66762,-0.91877 -3.90512,-1.18716 -1.95642,-0.42431 -2.25,-0.0813 -2.25,2.62859 0,3.39428 -1.0535,3.96197 -3,1.61658 -1.935251,-2.33184 -4.702781,-1.82034 -5.410641,1 -0.7552,3.00896 -2.21791,3.2457 -3.08936,0.5 -0.34912,-1.1 -1.48862,-2 -2.5322,-2 -1.04359,0 -2.3791,0.9 -2.9678,2 -1.41493,2.64383 -2.78475,2.53615 -3.18045,-0.25 z m 12.28123,-16.90295 c 9.013021,-3.05705 14.234421,-10.12932 14.283761,-19.34705 0.0837,-15.645151 -15.093711,-25.902438 -28.989561,-19.591834 -12.81563,5.820033 -16.37241,22.241454 -7.1675,33.091834 5.01535,5.9119 14.33619,8.40349 21.8733,5.84705 z m -9.53585,-12.34705 c 0.99553,-1.65 2.47042,-3.7875 3.27755,-4.75 1.36012,-1.62195 1.15933,-1.75 -2.74408,-1.75 l -4.21159,0 4.8066,-6.96824 c 4.52545,-6.56065 5.03138,-6.970091 8.64971,-6.999995 l 3.843121,-0.03176 -4.183481,4.996705 c -3.32411,3.97028 -3.86663,5.1183 -2.64101,5.58861 0.84836,0.32555 2.01403,0.30047 2.59036,-0.0557 2.89628,-1.79 0.37429,1.68968 -5.07467,7.0017 -4.23433,4.12793 -5.56433,5.04349 -4.31251,2.9687 z m 95.254621,29.26022 c -0.44042,-3.08701 -3.47429,-3.39423 -5.81252,-0.5886 -1.84746,2.21675 -1.94762,2.2325 -2.08911,0.32838 -0.0817,-1.1 -0.20921,-2.675 -0.28327,-3.5 -0.14276,-1.59038 -2.86841,-1.80339 -6.03253,-0.47145 -1.64426,0.69216 -1.82999,0.44381 -1.38988,-1.85847 0.70445,-3.68508 -1.43367,-5.34585 -4.8679,-3.78111 -2.44433,1.11371 -2.556,1.0491 -1.90636,-1.10298 1.44109,-4.77393 1.20209,-5.27438 -2.6721,-5.59541 -3.70984,-0.30741 -3.72376,-0.32524 -2.14005,-2.74228 2.03851,-3.11115 1.14005,-5.4483 -2.09445,-5.4483 -3.03317,0 -3.30192,-1.51725 -0.53138,-3 2.95423,-1.58105 2.43423,-3.81155 -1.25,-5.3618 l -3.25,-1.36754 2.75,-1.29585 c 3.22459,-1.51948 3.59287,-4.45335 0.75,-5.97481 -2.72178,-1.45665 -2.5196,-3 0.39301,-3 3.35743,0 4.12808,-2.81642 1.52798,-5.584095 l -2.13554,-2.273183 3.35727,-0.32136 c 3.49318,-0.334368 4.12797,-1.960187 2.37806,-6.09068 -0.64189,-1.515108 -0.26619,-1.730625 2.61482,-1.5 3.20992,0.256955 3.35763,0.120098 3.21695,-2.980679 -0.11531,-2.541594 0.25328,-3.25 1.69098,-3.25 1.01114,0 2.13006,0.471851 2.48648,1.048558 C 167.55375,85.537509 170,82.949546 170,80.210068 c 0,-2.70707 1.18528,-3.064163 2.98256,-0.898568 1.75431,2.113815 5.01744,0.153527 5.01744,-3.014171 0,-3.121698 1.29032,-3.159374 2.9353,-0.08571 1.63258,3.050497 4.65585,2.385999 5.5615,-1.222385 0.64818,-2.582552 0.70362,-2.600273 2.05059,-0.655517 3.36057,4.85198 3.65821,4.961083 6.02569,2.208732 C 197.00283,73.717694 198,73.964952 198,77.392191 c 0,3.246834 2.87636,3.905103 5.65546,1.294278 L 206,76.483885 l 0,3.590981 c 0,4.132597 1.52555,5.079238 4.78121,2.966856 2.88998,-1.875118 3.55154,-1.214616 2.23961,2.236019 -1.41681,3.726505 -0.42851,4.853838 3.5937,4.099266 3.66643,-0.687827 4.0943,-0.06401 1.92236,2.802705 -1.87659,2.476892 -0.97383,4.402801 2.06381,4.402801 3.46279,0 4.01456,0.91268 1.93856,3.206624 -2.1228,2.345673 -1.3898,5.043373 1.37035,5.043373 3.02981,0 3.49056,1.86055 0.76795,3.10106 -2.83452,1.29149 -2.58215,4.47705 0.43042,5.43321 2.62634,0.83357 2.36273,2.33627 -0.60797,3.46573 -3.01062,1.14463 -3.23783,3.52227 -0.5,5.23207 2.81301,1.75676 2.48678,2.76793 -0.89301,2.76793 -3.40436,0 -4.539,2.05409 -2.57011,4.6528 2.05252,2.70909 1.81089,3.18695 -1.78688,3.53384 -3.34999,0.323 -3.59379,0.94428 -2.1917,5.58512 0.645,2.13492 0.518,2.20775 -2.10843,1.20918 -4.19256,-1.59401 -5.74356,-0.5946 -4.91708,3.16837 0.61607,2.80495 0.48756,3.06544 -1.17036,2.37223 -1.02434,-0.4283 -2.87493,-0.99832 -4.11243,-1.26671 -1.95642,-0.42431 -2.25,-0.0813 -2.25,2.62859 0,3.39428 -1.0535,3.96197 -3,1.61658 -1.86154,-2.24302 -4.80777,-1.86103 -5.18045,0.67167 -0.42673,2.9001 -2.48706,3.45128 -3.30208,0.88338 -0.83319,-2.62514 -4.12443,-2.65798 -5.51747,-0.055 -1.41312,2.64045 -2.78427,2.53707 -3.18045,-0.23978 z m 12.28123,-16.89832 c 15.40988,-5.15943 19.6076,-25.10797 7.46967,-35.497584 -10.88885,-9.320448 -26.64916,-5.878609 -32.67459,7.135684 -7.42324,16.03344 8.50261,33.95404 25.20492,28.3619 z M 181,112.33251 c 0,-10.69967 0.1345,-11.5 1.93261,-11.5 1.06294,0 2.20284,0.85142 2.53312,1.89203 1.10804,3.49112 7.53427,3.11437 7.53427,-0.44172 0,-0.79767 0.9,-1.45031 2,-1.45031 1.88406,0 2,0.66667 2,11.5 l 0,11.5 -8,0 -8,0 0,-11.5 z m -3.45729,8.5691 c -0.31644,-0.512 -0.11799,-1.21356 0.44098,-1.55902 0.55897,-0.34546 1.01631,0.0734 1.01631,0.9309 0,1.75653 -0.60006,2.01516 -1.45729,0.62812 z M 199,120.39153 c 0,-0.85746 0.45,-1.55902 1,-1.55902 0.55,0 1,0.42344 1,0.94098 0,0.51754 -0.45,1.2191 -1,1.55902 -0.55,0.33992 -1,-0.0835 -1,-0.94098 z m -21.39131,-4.38316 c -0.35272,-0.57071 -0.15403,-1.33882 0.44153,-1.7069 1.4861,-0.91846 2.0122,-0.188 1.02041,1.41676 -0.53135,0.85973 -1.0467,0.96201 -1.46194,0.29014 z M 199,115.27349 c 0,-0.85746 0.45734,-1.27636 1.01631,-0.9309 0.55897,0.34546 0.75742,1.04702 0.44098,1.55902 C 199.60006,117.28865 199,117.03002 199,115.27349 Z m -21.45729,-4.37188 c -0.31644,-0.512 -0.11799,-1.21356 0.44098,-1.55902 0.55897,-0.34546 1.01631,0.0734 1.01631,0.9309 0,1.75653 -0.60006,2.01516 -1.45729,0.62812 z M 199,109.83251 c 0,-0.55 0.45,-1 1,-1 0.55,0 1,0.45 1,1 0,0.55 -0.45,1 -1,1 -0.55,0 -1,-0.45 -1,-1 z m 0,-4.5 c 0,-0.825 0.43588,-1.5 0.96862,-1.5 0.53273,0 0.70959,0.675 0.39301,1.5 -0.31659,0.825 -0.75246,1.5 -0.96862,1.5 -0.21615,0 -0.39301,-0.675 -0.39301,-1.5 z m -21.5,-0.5 c -0.33992,-0.55 -0.16803,-1 0.38197,-1 0.55,0 1.27811,0.45 1.61803,1 0.33992,0.55 0.16803,1 -0.38197,1 -0.55,0 -1.27811,-0.45 -1.61803,-1 z m -47.96664,-6.551822 c -0.9561,-2.503504 -3.2368,-6.778504 -5.06824,-9.5 l -3.32987,-4.948175 17.55435,0 17.55434,0 -1.65007,2.25 c -2.26182,3.084158 -7.59211,13.965067 -7.59308,15.499997 -5.7e-4,0.89397 -2.24071,1.25 -7.86493,1.25 l -7.86414,0 -1.73836,-4.551822 z"
     id="path3416"
     inkscape:connector-curvature="0" />
</svg>
